# Blender 4.2.1 LTS
# www.blender.org
o Handle_Rotate
v 0.000000 -0.020000 1.000000
v 0.000000 0.020000 1.000000
v 0.098017 -0.020000 0.995185
v 0.098017 0.020000 0.995185
v 0.195090 -0.020000 0.980785
v 0.195090 0.020000 0.980785
v 0.290285 -0.020000 0.956940
v 0.290285 0.020000 0.956940
v 0.382683 -0.020000 0.923880
v 0.382683 0.020000 0.923880
v 0.471397 -0.020000 0.881921
v 0.471397 0.020000 0.881921
v 0.555570 -0.020000 0.831470
v 0.555570 0.020000 0.831470
v 0.634393 -0.020000 0.773010
v 0.634393 0.020000 0.773010
v 0.707107 -0.020000 0.707107
v 0.707107 0.020000 0.707107
v 0.773010 -0.020000 0.634393
v 0.773010 0.020000 0.634393
v 0.831470 -0.020000 0.555570
v 0.831470 0.020000 0.555570
v 0.881921 -0.020000 0.471397
v 0.881921 0.020000 0.471397
v 0.923880 -0.020000 0.382683
v 0.923880 0.020000 0.382683
v 0.956940 -0.020000 0.290285
v 0.956940 0.020000 0.290285
v 0.980785 -0.020000 0.195090
v 0.980785 0.020000 0.195090
v 0.995185 -0.020000 0.098017
v 0.995185 0.020000 0.098017
v 1.000000 -0.020000 0.000000
v 1.000000 0.020000 0.000000
v 0.995185 -0.020000 -0.098017
v 0.995185 0.020000 -0.098017
v 0.980785 -0.020000 -0.195090
v 0.980785 0.020000 -0.195090
v 0.956940 -0.020000 -0.290285
v 0.956940 0.020000 -0.290285
v 0.923880 -0.020000 -0.382683
v 0.923880 0.020000 -0.382683
v 0.881921 -0.020000 -0.471397
v 0.881921 0.020000 -0.471397
v 0.831470 -0.020000 -0.555570
v 0.831470 0.020000 -0.555570
v 0.773010 -0.020000 -0.634393
v 0.773010 0.020000 -0.634393
v 0.707107 -0.020000 -0.707107
v 0.707107 0.020000 -0.707107
v 0.634393 -0.020000 -0.773010
v 0.634393 0.020000 -0.773010
v 0.555570 -0.020000 -0.831470
v 0.555570 0.020000 -0.831470
v 0.471397 -0.020000 -0.881921
v 0.471397 0.020000 -0.881921
v 0.382683 -0.020000 -0.923880
v 0.382683 0.020000 -0.923880
v 0.290285 -0.020000 -0.956940
v 0.290285 0.020000 -0.956940
v 0.195090 -0.020000 -0.980785
v 0.195090 0.020000 -0.980785
v 0.098017 -0.020000 -0.995185
v 0.098017 0.020000 -0.995185
v 0.000000 -0.020000 -1.000000
v 0.000000 0.020000 -1.000000
v -0.098017 -0.020000 -0.995185
v -0.098017 0.020000 -0.995185
v -0.195090 -0.020000 -0.980785
v -0.195090 0.020000 -0.980785
v -0.290285 -0.020000 -0.956940
v -0.290285 0.020000 -0.956940
v -0.382683 -0.020000 -0.923880
v -0.382683 0.020000 -0.923880
v -0.471397 -0.020000 -0.881921
v -0.471397 0.020000 -0.881921
v -0.555570 -0.020000 -0.831470
v -0.555570 0.020000 -0.831470
v -0.634393 -0.020000 -0.773010
v -0.634393 0.020000 -0.773010
v -0.707107 -0.020000 -0.707107
v -0.707107 0.020000 -0.707107
v -0.773010 -0.020000 -0.634393
v -0.773010 0.020000 -0.634393
v -0.831470 -0.020000 -0.555570
v -0.831470 0.020000 -0.555570
v -0.881921 -0.020000 -0.471397
v -0.881921 0.020000 -0.471397
v -0.923880 -0.020000 -0.382683
v -0.923880 0.020000 -0.382683
v -0.956940 -0.020000 -0.290285
v -0.956940 0.020000 -0.290285
v -0.980785 -0.020000 -0.195090
v -0.980785 0.020000 -0.195090
v -0.995185 -0.020000 -0.098017
v -0.995185 0.020000 -0.098017
v -1.000000 -0.020000 0.000000
v -1.000000 0.020000 0.000000
v -0.995185 -0.020000 0.098017
v -0.995185 0.020000 0.098017
v -0.980785 -0.020000 0.195090
v -0.980785 0.020000 0.195090
v -0.956940 -0.020000 0.290285
v -0.956940 0.020000 0.290285
v -0.923880 -0.020000 0.382683
v -0.923880 0.020000 0.382683
v -0.881921 -0.020000 0.471397
v -0.881921 0.020000 0.471397
v -0.831470 -0.020000 0.555570
v -0.831470 0.020000 0.555570
v -0.773010 -0.020000 0.634393
v -0.773010 0.020000 0.634393
v -0.707107 -0.020000 0.707107
v -0.707107 0.020000 0.707107
v -0.634393 -0.020000 0.773010
v -0.634393 0.020000 0.773010
v -0.555570 -0.020000 0.831470
v -0.555570 0.020000 0.831470
v -0.471397 -0.020000 0.881921
v -0.471397 0.020000 0.881921
v -0.382683 -0.020000 0.923880
v -0.382683 0.020000 0.923880
v -0.290285 -0.020000 0.956940
v -0.290285 0.020000 0.956940
v -0.195090 -0.020000 0.980785
v -0.195090 0.020000 0.980785
v -0.098017 -0.020000 0.995185
v -0.098017 0.020000 0.995185
v 0.096054 0.000000 0.975257
v 0.099980 0.000000 1.015112
v 0.198997 0.000000 1.000425
v 0.191184 0.000000 0.961146
v 0.296097 0.000000 0.976102
v 0.284472 0.000000 0.937778
v 0.390346 0.000000 0.942379
v 0.375021 0.000000 0.905380
v 0.480836 0.000000 0.899581
v 0.461957 0.000000 0.864262
v 0.566695 0.000000 0.848119
v 0.544445 0.000000 0.814820
v 0.647097 0.000000 0.788489
v 0.621690 0.000000 0.757532
v 0.721266 0.000000 0.721266
v 0.692948 0.000000 0.692948
v 0.788489 0.000000 0.647097
v 0.757532 0.000000 0.621690
v 0.848119 0.000000 0.566695
v 0.814820 0.000000 0.544445
v 0.899581 0.000000 0.480836
v 0.864262 0.000000 0.461957
v 0.942379 0.000000 0.390346
v 0.905380 0.000000 0.375021
v 0.976102 0.000000 0.296097
v 0.937778 0.000000 0.284472
v 1.000425 0.000000 0.198997
v 0.961146 0.000000 0.191184
v 1.015112 0.000000 0.099980
v 0.975257 0.000000 0.096054
v 1.020024 0.000000 0.000000
v 0.979976 0.000000 0.000000
v 1.015112 0.000000 -0.099980
v 0.975257 0.000000 -0.096054
v 1.000425 0.000000 -0.198997
v 0.961146 0.000000 -0.191184
v 0.976102 0.000000 -0.296097
v 0.937778 0.000000 -0.284472
v 0.942379 0.000000 -0.390346
v 0.905380 0.000000 -0.375021
v 0.899581 0.000000 -0.480836
v 0.864262 0.000000 -0.461957
v 0.848119 0.000000 -0.566695
v 0.814820 0.000000 -0.544445
v 0.788489 0.000000 -0.647097
v 0.757532 0.000000 -0.621690
v 0.721266 0.000000 -0.721266
v 0.692948 0.000000 -0.692948
v 0.647097 0.000000 -0.788489
v 0.621690 0.000000 -0.757532
v 0.566695 0.000000 -0.848119
v 0.544445 0.000000 -0.814820
v 0.480836 0.000000 -0.899581
v 0.461957 0.000000 -0.864262
v 0.390346 0.000000 -0.942379
v 0.375021 0.000000 -0.905380
v 0.296097 0.000000 -0.976102
v 0.284472 0.000000 -0.937778
v 0.198997 0.000000 -1.000425
v 0.191184 0.000000 -0.961146
v 0.099980 0.000000 -1.015112
v 0.096054 0.000000 -0.975257
v 0.000000 0.000000 -1.020024
v 0.000000 0.000000 -0.979976
v -0.099980 0.000000 -1.015112
v -0.096054 0.000000 -0.975257
v -0.198997 0.000000 -1.000425
v -0.191184 0.000000 -0.961146
v -0.296097 0.000000 -0.976102
v -0.284472 0.000000 -0.937778
v -0.390346 0.000000 -0.942379
v -0.375021 0.000000 -0.905380
v -0.480836 0.000000 -0.899581
v -0.461957 0.000000 -0.864262
v -0.566695 0.000000 -0.848119
v -0.544445 0.000000 -0.814820
v -0.647097 0.000000 -0.788489
v -0.621690 0.000000 -0.757532
v -0.721266 0.000000 -0.721266
v -0.692948 0.000000 -0.692948
v -0.788489 0.000000 -0.647097
v -0.757532 0.000000 -0.621690
v -0.848119 0.000000 -0.566695
v -0.814820 0.000000 -0.544445
v -0.899581 0.000000 -0.480836
v -0.864262 0.000000 -0.461957
v -0.942379 0.000000 -0.390346
v -0.905380 0.000000 -0.375021
v -0.976102 0.000000 -0.296097
v -0.937778 0.000000 -0.284472
v -1.000425 0.000000 -0.198997
v -0.961146 0.000000 -0.191184
v -1.015112 0.000000 -0.099980
v -0.975257 0.000000 -0.096054
v -1.020024 0.000000 0.000000
v -0.979976 0.000000 0.000000
v -1.015112 0.000000 0.099980
v -0.975257 0.000000 0.096054
v -1.000425 0.000000 0.198997
v -0.961146 0.000000 0.191184
v -0.976102 0.000000 0.296097
v -0.937778 0.000000 0.284472
v -0.942379 0.000000 0.390346
v -0.905380 0.000000 0.375021
v -0.899581 0.000000 0.480836
v -0.864262 0.000000 0.461957
v -0.848119 0.000000 0.566695
v -0.814820 0.000000 0.544445
v -0.788489 0.000000 0.647097
v -0.757532 0.000000 0.621690
v -0.721266 0.000000 0.721266
v -0.692948 0.000000 0.692948
v -0.647097 0.000000 0.788489
v -0.621690 0.000000 0.757532
v -0.566695 0.000000 0.848119
v -0.544445 0.000000 0.814820
v -0.480836 0.000000 0.899581
v -0.461957 0.000000 0.864262
v -0.390346 0.000000 0.942379
v -0.375021 0.000000 0.905380
v -0.296097 0.000000 0.976102
v -0.284472 0.000000 0.937778
v -0.198997 0.000000 1.000425
v -0.191184 0.000000 0.961146
v -0.099980 0.000000 1.015112
v -0.096054 0.000000 0.975257
v 0.000000 0.000000 1.020024
v 0.000000 0.000000 0.979976
vn -0.1379 -0.7075 -0.6931
vn -0.0693 -0.7075 -0.7033
vn -0.0693 0.7075 -0.7033
vn -0.1379 0.7075 -0.6931
vn 0.1379 -0.7075 0.6931
vn 0.0693 -0.7075 0.7033
vn 0.1379 0.7075 0.6931
vn 0.0693 0.7075 0.7033
vn -0.2051 -0.7075 -0.6763
vn -0.2051 0.7075 -0.6763
vn 0.2051 -0.7075 0.6763
vn 0.2051 0.7075 0.6763
vn -0.2704 -0.7075 -0.6529
vn -0.2704 0.7075 -0.6529
vn 0.2704 -0.7075 0.6529
vn 0.2704 0.7075 0.6529
vn -0.3331 -0.7075 -0.6232
vn -0.3331 0.7075 -0.6232
vn 0.3331 -0.7075 0.6232
vn 0.3331 0.7075 0.6232
vn -0.3926 -0.7075 -0.5876
vn -0.3926 0.7075 -0.5876
vn 0.3926 -0.7075 0.5876
vn 0.3926 0.7075 0.5876
vn -0.4483 -0.7075 -0.5463
vn -0.4483 0.7075 -0.5463
vn 0.4483 -0.7075 0.5463
vn 0.4483 0.7075 0.5463
vn -0.4997 -0.7075 -0.4997
vn -0.4997 0.7075 -0.4997
vn 0.4997 -0.7075 0.4997
vn 0.4997 0.7075 0.4997
vn -0.5463 -0.7075 -0.4483
vn -0.5463 0.7075 -0.4483
vn 0.5463 -0.7075 0.4483
vn 0.5463 0.7075 0.4483
vn -0.5876 -0.7075 -0.3926
vn -0.5876 0.7075 -0.3926
vn 0.5876 -0.7075 0.3926
vn 0.5876 0.7075 0.3926
vn -0.6232 -0.7075 -0.3331
vn -0.6232 0.7075 -0.3331
vn 0.6232 -0.7075 0.3331
vn 0.6232 0.7075 0.3331
vn -0.6529 -0.7075 -0.2704
vn -0.6529 0.7075 -0.2704
vn 0.6529 -0.7075 0.2704
vn 0.6529 0.7075 0.2704
vn -0.6763 -0.7075 -0.2051
vn -0.6763 0.7075 -0.2051
vn 0.6763 -0.7075 0.2051
vn 0.6763 0.7075 0.2051
vn -0.6931 -0.7075 -0.1379
vn -0.6931 0.7075 -0.1379
vn 0.6931 -0.7075 0.1379
vn 0.6931 0.7075 0.1379
vn -0.7033 -0.7075 -0.0693
vn -0.7033 0.7075 -0.0693
vn 0.7033 -0.7075 0.0693
vn 0.7033 0.7075 0.0693
vn -0.7067 -0.7075 -0.0000
vn -0.7067 0.7075 -0.0000
vn 0.7067 -0.7075 -0.0000
vn 0.7067 0.7075 -0.0000
vn -0.7033 -0.7075 0.0693
vn -0.7033 0.7075 0.0693
vn 0.7033 -0.7075 -0.0693
vn 0.7033 0.7075 -0.0693
vn -0.6931 -0.7075 0.1379
vn -0.6931 0.7075 0.1379
vn 0.6931 -0.7075 -0.1379
vn 0.6931 0.7075 -0.1379
vn -0.6763 -0.7075 0.2051
vn -0.6763 0.7075 0.2051
vn 0.6763 -0.7075 -0.2051
vn 0.6763 0.7075 -0.2051
vn -0.6529 -0.7075 0.2704
vn -0.6529 0.7075 0.2704
vn 0.6529 -0.7075 -0.2704
vn 0.6529 0.7075 -0.2704
vn -0.6232 -0.7075 0.3331
vn -0.6232 0.7075 0.3331
vn 0.6232 -0.7075 -0.3331
vn 0.6232 0.7075 -0.3331
vn -0.5876 -0.7075 0.3926
vn -0.5876 0.7075 0.3926
vn 0.5876 -0.7075 -0.3926
vn 0.5876 0.7075 -0.3926
vn -0.5463 -0.7075 0.4483
vn -0.5463 0.7075 0.4483
vn 0.5463 -0.7075 -0.4483
vn 0.5463 0.7075 -0.4483
vn -0.4997 -0.7075 0.4997
vn -0.4997 0.7075 0.4997
vn 0.4997 -0.7075 -0.4997
vn 0.4997 0.7075 -0.4997
vn -0.4483 -0.7075 0.5463
vn -0.4483 0.7075 0.5463
vn 0.4483 -0.7075 -0.5463
vn 0.4483 0.7075 -0.5463
vn -0.3926 -0.7075 0.5876
vn -0.3926 0.7075 0.5876
vn 0.3926 -0.7075 -0.5876
vn 0.3926 0.7075 -0.5876
vn -0.3331 -0.7075 0.6232
vn -0.3331 0.7075 0.6232
vn 0.3331 -0.7075 -0.6232
vn 0.3331 0.7075 -0.6232
vn -0.2704 -0.7075 0.6529
vn -0.2704 0.7075 0.6529
vn 0.2704 -0.7075 -0.6529
vn 0.2704 0.7075 -0.6529
vn -0.2051 -0.7075 0.6763
vn -0.2051 0.7075 0.6763
vn 0.2051 -0.7075 -0.6763
vn 0.2051 0.7075 -0.6763
vn -0.1379 -0.7075 0.6931
vn -0.1379 0.7075 0.6931
vn 0.1379 -0.7075 -0.6931
vn 0.1379 0.7075 -0.6931
vn -0.0693 -0.7075 0.7033
vn -0.0693 0.7075 0.7033
vn 0.0693 -0.7075 -0.7033
vn 0.0693 0.7075 -0.7033
vn -0.0000 -0.7075 0.7067
vn -0.0000 0.7075 0.7067
vn -0.0000 -0.7075 -0.7067
vn -0.0000 0.7075 -0.7067
s 1
f 132//1 3//2 129//2
f 129//3 6//4 132//4
f 131//5 3//6 5//5
f 131//7 4//8 130//8
f 134//9 5//1 132//1
f 134//10 6//4 8//10
f 131//5 7//11 133//11
f 133//12 6//7 131//7
f 136//13 7//9 134//9
f 136//14 8//10 10//14
f 133//11 9//15 135//15
f 135//16 8//12 133//12
f 138//17 9//13 136//13
f 136//14 12//18 138//18
f 135//15 11//19 137//19
f 135//16 12//20 10//16
f 140//21 11//17 138//17
f 138//18 14//22 140//22
f 139//23 11//19 13//23
f 137//20 14//24 12//20
f 142//25 13//21 140//21
f 140//22 16//26 142//26
f 141//27 13//23 15//27
f 139//24 16//28 14//24
f 144//29 15//25 142//25
f 144//30 16//26 18//30
f 141//27 17//31 143//31
f 141//28 18//32 16//28
f 144//29 19//33 17//29
f 144//30 20//34 146//34
f 145//35 17//31 19//35
f 145//36 18//32 143//32
f 148//37 19//33 146//33
f 146//34 22//38 148//38
f 147//39 19//35 21//39
f 145//36 22//40 20//36
f 150//41 21//37 148//37
f 148//38 24//42 150//42
f 149//43 21//39 23//43
f 147//40 24//44 22//40
f 152//45 23//41 150//41
f 150//42 26//46 152//46
f 151//47 23//43 25//47
f 151//48 24//44 149//44
f 152//45 27//49 25//45
f 152//46 28//50 154//50
f 151//47 27//51 153//51
f 153//52 26//48 151//48
f 154//49 29//53 27//49
f 154//50 30//54 156//54
f 153//51 29//55 155//55
f 155//56 28//52 153//52
f 158//57 29//53 156//53
f 156//54 32//58 158//58
f 155//55 31//59 157//59
f 155//56 32//60 30//56
f 160//61 31//57 158//57
f 158//58 34//62 160//62
f 157//59 33//63 159//63
f 159//64 32//60 157//60
f 162//65 33//61 160//61
f 160//62 36//66 162//66
f 159//63 35//67 161//67
f 161//68 34//64 159//64
f 164//69 35//65 162//65
f 162//66 38//70 164//70
f 163//71 35//67 37//71
f 163//72 36//68 161//68
f 166//73 37//69 164//69
f 166//74 38//70 40//74
f 163//71 39//75 165//75
f 165//76 38//72 163//72
f 168//77 39//73 166//73
f 168//78 40//74 42//78
f 165//75 41//79 167//79
f 167//80 40//76 165//76
f 170//81 41//77 168//77
f 168//78 44//82 170//82
f 167//79 43//83 169//83
f 167//80 44//84 42//80
f 172//85 43//81 170//81
f 170//82 46//86 172//86
f 171//87 43//83 45//87
f 169//84 46//88 44//84
f 174//89 45//85 172//85
f 172//86 48//90 174//90
f 173//91 45//87 47//91
f 171//88 48//92 46//88
f 176//93 47//89 174//89
f 176//94 48//90 50//94
f 173//91 49//95 175//95
f 173//92 50//96 48//92
f 176//93 51//97 49//93
f 176//94 52//98 178//98
f 177//99 49//95 51//99
f 177//100 50//96 175//96
f 180//101 51//97 178//97
f 178//98 54//102 180//102
f 179//103 51//99 53//103
f 177//100 54//104 52//100
f 182//105 53//101 180//101
f 180//102 56//106 182//106
f 181//107 53//103 55//107
f 179//104 56//108 54//104
f 184//109 55//105 182//105
f 182//106 58//110 184//110
f 183//111 55//107 57//111
f 183//112 56//108 181//108
f 184//109 59//113 57//109
f 184//110 60//114 186//114
f 183//111 59//115 185//115
f 185//116 58//112 183//112
f 186//113 61//117 59//113
f 186//114 62//118 188//118
f 185//115 61//119 187//119
f 187//120 60//116 185//116
f 190//121 61//117 188//117
f 188//118 64//122 190//122
f 187//119 63//123 189//123
f 187//120 64//124 62//120
f 192//125 63//121 190//121
f 190//122 66//126 192//126
f 189//123 65//127 191//127
f 191//128 64//124 189//124
f 194//6 65//125 192//125
f 192//126 68//8 194//8
f 191//127 67//2 193//2
f 193//3 66//128 191//128
f 196//5 67//6 194//6
f 194//8 70//7 196//7
f 195//1 67//2 69//1
f 195//4 68//3 193//3
f 198//11 69//5 196//5
f 198//12 70//7 72//12
f 195//1 71//9 197//9
f 197//10 70//4 195//4
f 200//15 71//11 198//11
f 200//16 72//12 74//16
f 197//9 73//13 199//13
f 199//14 72//10 197//10
f 202//19 73//15 200//15
f 200//16 76//20 202//20
f 199//13 75//17 201//17
f 199//14 76//18 74//14
f 204//23 75//19 202//19
f 202//20 78//24 204//24
f 203//21 75//17 77//21
f 201//18 78//22 76//18
f 206//27 77//23 204//23
f 204//24 80//28 206//28
f 205//25 77//21 79//25
f 203//22 80//26 78//22
f 208//31 79//27 206//27
f 208//32 80//28 82//32
f 205//25 81//29 207//29
f 205//26 82//30 80//26
f 208//31 83//35 81//31
f 208//32 84//36 210//36
f 209//33 81//29 83//33
f 209//34 82//30 207//30
f 212//39 83//35 210//35
f 210//36 86//40 212//40
f 211//37 83//33 85//37
f 209//34 86//38 84//34
f 214//43 85//39 212//39
f 212//40 88//44 214//44
f 213//41 85//37 87//41
f 211//38 88//42 86//38
f 216//47 87//43 214//43
f 214//44 90//48 216//48
f 215//45 87//41 89//45
f 215//46 88//42 213//42
f 216//47 91//51 89//47
f 216//48 92//52 218//52
f 215//45 91//49 217//49
f 217//50 90//46 215//46
f 218//51 93//55 91//51
f 218//52 94//56 220//56
f 217//49 93//53 219//53
f 219//54 92//50 217//50
f 222//59 93//55 220//55
f 220//56 96//60 222//60
f 219//53 95//57 221//57
f 219//54 96//58 94//54
f 224//63 95//59 222//59
f 222//60 98//64 224//64
f 221//57 97//61 223//61
f 223//62 96//58 221//58
f 226//67 97//63 224//63
f 224//64 100//68 226//68
f 223//61 99//65 225//65
f 225//66 98//62 223//62
f 228//71 99//67 226//67
f 226//68 102//72 228//72
f 227//69 99//65 101//69
f 227//70 100//66 225//66
f 230//75 101//71 228//71
f 230//76 102//72 104//76
f 227//69 103//73 229//73
f 229//74 102//70 227//70
f 232//79 103//75 230//75
f 232//80 104//76 106//80
f 229//73 105//77 231//77
f 231//78 104//74 229//74
f 234//83 105//79 232//79
f 232//80 108//84 234//84
f 231//77 107//81 233//81
f 231//78 108//82 106//78
f 236//87 107//83 234//83
f 234//84 110//88 236//88
f 235//85 107//81 109//85
f 233//82 110//86 108//82
f 238//91 109//87 236//87
f 236//88 112//92 238//92
f 237//89 109//85 111//89
f 235//86 112//90 110//86
f 240//95 111//91 238//91
f 240//96 112//92 114//96
f 237//89 113//93 239//93
f 237//90 114//94 112//90
f 240//95 115//99 113//95
f 240//96 116//100 242//100
f 241//97 113//93 115//97
f 241//98 114//94 239//94
f 244//103 115//99 242//99
f 242//100 118//104 244//104
f 243//101 115//97 117//101
f 241//98 118//102 116//98
f 246//107 117//103 244//103
f 244//104 120//108 246//108
f 245//105 117//101 119//105
f 243//102 120//106 118//102
f 248//111 119//107 246//107
f 246//108 122//112 248//112
f 247//109 119//105 121//109
f 247//110 120//106 245//106
f 248//111 123//115 121//111
f 248//112 124//116 250//116
f 247//109 123//113 249//113
f 249//114 122//110 247//110
f 250//115 125//119 123//115
f 250//116 126//120 252//120
f 249//113 125//117 251//117
f 251//118 124//114 249//114
f 254//123 125//119 252//119
f 252//120 128//124 254//124
f 251//117 127//121 253//121
f 251//118 128//122 126//118
f 256//127 127//123 254//123
f 254//124 2//128 256//128
f 253//121 1//125 255//125
f 255//126 128//122 253//122
f 129//2 1//127 256//127
f 256//128 4//3 129//3
f 255//125 3//6 130//6
f 130//8 2//126 255//126
f 132//1 5//1 3//2
f 129//3 4//3 6//4
f 131//5 130//6 3//6
f 131//7 6//7 4//8
f 134//9 7//9 5//1
f 134//10 132//4 6//4
f 131//5 5//5 7//11
f 133//12 8//12 6//7
f 136//13 9//13 7//9
f 136//14 134//10 8//10
f 133//11 7//11 9//15
f 135//16 10//16 8//12
f 138//17 11//17 9//13
f 136//14 10//14 12//18
f 135//15 9//15 11//19
f 135//16 137//20 12//20
f 140//21 13//21 11//17
f 138//18 12//18 14//22
f 139//23 137//19 11//19
f 137//20 139//24 14//24
f 142//25 15//25 13//21
f 140//22 14//22 16//26
f 141//27 139//23 13//23
f 139//24 141//28 16//28
f 144//29 17//29 15//25
f 144//30 142//26 16//26
f 141//27 15//27 17//31
f 141//28 143//32 18//32
f 144//29 146//33 19//33
f 144//30 18//30 20//34
f 145//35 143//31 17//31
f 145//36 20//36 18//32
f 148//37 21//37 19//33
f 146//34 20//34 22//38
f 147//39 145//35 19//35
f 145//36 147//40 22//40
f 150//41 23//41 21//37
f 148//38 22//38 24//42
f 149//43 147//39 21//39
f 147//40 149//44 24//44
f 152//45 25//45 23//41
f 150//42 24//42 26//46
f 151//47 149//43 23//43
f 151//48 26//48 24//44
f 152//45 154//49 27//49
f 152//46 26//46 28//50
f 151//47 25//47 27//51
f 153//52 28//52 26//48
f 154//49 156//53 29//53
f 154//50 28//50 30//54
f 153//51 27//51 29//55
f 155//56 30//56 28//52
f 158//57 31//57 29//53
f 156//54 30//54 32//58
f 155//55 29//55 31//59
f 155//56 157//60 32//60
f 160//61 33//61 31//57
f 158//58 32//58 34//62
f 157//59 31//59 33//63
f 159//64 34//64 32//60
f 162//65 35//65 33//61
f 160//62 34//62 36//66
f 159//63 33//63 35//67
f 161//68 36//68 34//64
f 164//69 37//69 35//65
f 162//66 36//66 38//70
f 163//71 161//67 35//67
f 163//72 38//72 36//68
f 166//73 39//73 37//69
f 166//74 164//70 38//70
f 163//71 37//71 39//75
f 165//76 40//76 38//72
f 168//77 41//77 39//73
f 168//78 166//74 40//74
f 165//75 39//75 41//79
f 167//80 42//80 40//76
f 170//81 43//81 41//77
f 168//78 42//78 44//82
f 167//79 41//79 43//83
f 167//80 169//84 44//84
f 172//85 45//85 43//81
f 170//82 44//82 46//86
f 171//87 169//83 43//83
f 169//84 171//88 46//88
f 174//89 47//89 45//85
f 172//86 46//86 48//90
f 173//91 171//87 45//87
f 171//88 173//92 48//92
f 176//93 49//93 47//89
f 176//94 174//90 48//90
f 173//91 47//91 49//95
f 173//92 175//96 50//96
f 176//93 178//97 51//97
f 176//94 50//94 52//98
f 177//99 175//95 49//95
f 177//100 52//100 50//96
f 180//101 53//101 51//97
f 178//98 52//98 54//102
f 179//103 177//99 51//99
f 177//100 179//104 54//104
f 182//105 55//105 53//101
f 180//102 54//102 56//106
f 181//107 179//103 53//103
f 179//104 181//108 56//108
f 184//109 57//109 55//105
f 182//106 56//106 58//110
f 183//111 181//107 55//107
f 183//112 58//112 56//108
f 184//109 186//113 59//113
f 184//110 58//110 60//114
f 183//111 57//111 59//115
f 185//116 60//116 58//112
f 186//113 188//117 61//117
f 186//114 60//114 62//118
f 185//115 59//115 61//119
f 187//120 62//120 60//116
f 190//121 63//121 61//117
f 188//118 62//118 64//122
f 187//119 61//119 63//123
f 187//120 189//124 64//124
f 192//125 65//125 63//121
f 190//122 64//122 66//126
f 189//123 63//123 65//127
f 191//128 66//128 64//124
f 194//6 67//6 65//125
f 192//126 66//126 68//8
f 191//127 65//127 67//2
f 193//3 68//3 66//128
f 196//5 69//5 67//6
f 194//8 68//8 70//7
f 195//1 193//2 67//2
f 195//4 70//4 68//3
f 198//11 71//11 69//5
f 198//12 196//7 70//7
f 195//1 69//1 71//9
f 197//10 72//10 70//4
f 200//15 73//15 71//11
f 200//16 198//12 72//12
f 197//9 71//9 73//13
f 199//14 74//14 72//10
f 202//19 75//19 73//15
f 200//16 74//16 76//20
f 199//13 73//13 75//17
f 199//14 201//18 76//18
f 204//23 77//23 75//19
f 202//20 76//20 78//24
f 203//21 201//17 75//17
f 201//18 203//22 78//22
f 206//27 79//27 77//23
f 204//24 78//24 80//28
f 205//25 203//21 77//21
f 203//22 205//26 80//26
f 208//31 81//31 79//27
f 208//32 206//28 80//28
f 205//25 79//25 81//29
f 205//26 207//30 82//30
f 208//31 210//35 83//35
f 208//32 82//32 84//36
f 209//33 207//29 81//29
f 209//34 84//34 82//30
f 212//39 85//39 83//35
f 210//36 84//36 86//40
f 211//37 209//33 83//33
f 209//34 211//38 86//38
f 214//43 87//43 85//39
f 212//40 86//40 88//44
f 213//41 211//37 85//37
f 211//38 213//42 88//42
f 216//47 89//47 87//43
f 214//44 88//44 90//48
f 215//45 213//41 87//41
f 215//46 90//46 88//42
f 216//47 218//51 91//51
f 216//48 90//48 92//52
f 215//45 89//45 91//49
f 217//50 92//50 90//46
f 218//51 220//55 93//55
f 218//52 92//52 94//56
f 217//49 91//49 93//53
f 219//54 94//54 92//50
f 222//59 95//59 93//55
f 220//56 94//56 96//60
f 219//53 93//53 95//57
f 219//54 221//58 96//58
f 224//63 97//63 95//59
f 222//60 96//60 98//64
f 221//57 95//57 97//61
f 223//62 98//62 96//58
f 226//67 99//67 97//63
f 224//64 98//64 100//68
f 223//61 97//61 99//65
f 225//66 100//66 98//62
f 228//71 101//71 99//67
f 226//68 100//68 102//72
f 227//69 225//65 99//65
f 227//70 102//70 100//66
f 230//75 103//75 101//71
f 230//76 228//72 102//72
f 227//69 101//69 103//73
f 229//74 104//74 102//70
f 232//79 105//79 103//75
f 232//80 230//76 104//76
f 229//73 103//73 105//77
f 231//78 106//78 104//74
f 234//83 107//83 105//79
f 232//80 106//80 108//84
f 231//77 105//77 107//81
f 231//78 233//82 108//82
f 236//87 109//87 107//83
f 234//84 108//84 110//88
f 235//85 233//81 107//81
f 233//82 235//86 110//86
f 238//91 111//91 109//87
f 236//88 110//88 112//92
f 237//89 235//85 109//85
f 235//86 237//90 112//90
f 240//95 113//95 111//91
f 240//96 238//92 112//92
f 237//89 111//89 113//93
f 237//90 239//94 114//94
f 240//95 242//99 115//99
f 240//96 114//96 116//100
f 241//97 239//93 113//93
f 241//98 116//98 114//94
f 244//103 117//103 115//99
f 242//100 116//100 118//104
f 243//101 241//97 115//97
f 241//98 243//102 118//102
f 246//107 119//107 117//103
f 244//104 118//104 120//108
f 245//105 243//101 117//101
f 243//102 245//106 120//106
f 248//111 121//111 119//107
f 246//108 120//108 122//112
f 247//109 245//105 119//105
f 247//110 122//110 120//106
f 248//111 250//115 123//115
f 248//112 122//112 124//116
f 247//109 121//109 123//113
f 249//114 124//114 122//110
f 250//115 252//119 125//119
f 250//116 124//116 126//120
f 249//113 123//113 125//117
f 251//118 126//118 124//114
f 254//123 127//123 125//119
f 252//120 126//120 128//124
f 251//117 125//117 127//121
f 251//118 253//122 128//122
f 256//127 1//127 127//123
f 254//124 128//124 2//128
f 253//121 127//121 1//125
f 255//126 2//126 128//122
f 129//2 3//2 1//127
f 256//128 2//128 4//3
f 255//125 1//125 3//6
f 130//8 4//8 2//126
